<?xml version="1.0" encoding="UTF-8" standalone="no"?>
<svg
   xmlns:dc="http://purl.org/dc/elements/1.1/"
   xmlns:cc="http://creativecommons.org/ns#"
   xmlns:rdf="http://www.w3.org/1999/02/22-rdf-syntax-ns#"
   xmlns:svg="http://www.w3.org/2000/svg"
   xmlns="http://www.w3.org/2000/svg"
   xmlns:sodipodi="http://sodipodi.sourceforge.net/DTD/sodipodi-0.dtd"
   xmlns:inkscape="http://www.inkscape.org/namespaces/inkscape"
   width="102.72487mm"
   height="105.61066mm"
   viewBox="0 0 102.72487 105.61067"
   version="1.1"
   id="svg881"
   inkscape:version="1.0.1 (3bc2e813f5, 2020-09-07)"
   sodipodi:docname="logosimp.svg">
  <defs
     id="defs875" />
  <sodipodi:namedview
     id="base"
     pagecolor="#ffffff"
     bordercolor="#666666"
     borderopacity="1.0"
     inkscape:pageopacity="0.0"
     inkscape:pageshadow="2"
     inkscape:zoom="1.979899"
     inkscape:cx="155.96899"
     inkscape:cy="209.22676"
     inkscape:document-units="mm"
     inkscape:current-layer="layer1"
     inkscape:document-rotation="0"
     showgrid="false"
     inkscape:window-width="1920"
     inkscape:window-height="1001"
     inkscape:window-x="-9"
     inkscape:window-y="-9"
     inkscape:window-maximized="1" />
  <metadata
     id="metadata878">
    <rdf:RDF>
      <cc:Work
         rdf:about="">
        <dc:format>image/svg+xml</dc:format>
        <dc:type
           rdf:resource="http://purl.org/dc/dcmitype/StillImage" />
        <dc:title></dc:title>
      </cc:Work>
    </rdf:RDF>
  </metadata>
  <g
     inkscape:label="Calque 1"
     inkscape:groupmode="layer"
     id="layer1"
     transform="translate(-31.5056,-64.388998)">
    <path
       style="display:inline;fill:#ffffff;fill-opacity:1;stroke:#f06522;stroke-width:3.444;stroke-linecap:square;stroke-linejoin:bevel;stroke-miterlimit:4;stroke-dasharray:none;stroke-opacity:1;paint-order:markers stroke fill;stop-color:#000000"
       id="path2119"
       sodipodi:type="arc"
       sodipodi:cx="82.902191"
       sodipodi:cy="117.03053"
       sodipodi:rx="48.550198"
       sodipodi:ry="49.934647"
       sodipodi:start="0.21275564"
       sodipodi:end="0.20940111"
       sodipodi:open="true"
       sodipodi:arc-type="arc"
       d="M 130.35772,127.57444 A 48.550198,49.934647 0 0 1 72.690414,165.84812 48.550198,49.934647 0 0 1 35.429539,106.5685 48.550198,49.934647 0 0 1 93.034344,68.195402 48.550198,49.934647 0 0 1 130.39184,127.41065" />
    <path
       style="display:inline;fill:#f06522;fill-opacity:1;stroke:#000000;stroke-width:0.080705px;stroke-linecap:butt;stroke-linejoin:miter;stroke-opacity:1"
       d="m 117.77977,99.967583 c -6.68748,-7.993539 -10.25084,-11.16062 -16.74436,-10.291413 -37.736118,5.05126 -31.527451,86.67859 16.92039,42.32603 0.27744,2.49253 1.66163,8.10599 -2.13011,10.20221 -59.02135,43.47514 -66.882483,-65.897147 -1.41082,-55.791911 6.35603,1.448163 9.22906,9.312068 3.3649,13.555084"
       id="path2053"
       sodipodi:nodetypes="cscccc" />
    <path
       style="display:inline;opacity:1;fill:#111331;fill-opacity:1;stroke:#000000;stroke-width:0.0987277px;stroke-linecap:butt;stroke-linejoin:miter;stroke-opacity:1"
       d="m 81.812348,76.123153 c -3.613936,5.81107 -6.103874,11.62213 -8.145666,17.43321 12.765506,-0.68386 28.579958,1.39085 38.292218,-2.05545 -1.04292,3.65188 -0.63402,6.34543 -6.58615,8.377846 l -33.761507,0.605201 c -4.93808,14.40411 -7.13982,27.36803 -6.62309,38.90119 4.02817,16.60119 24.260804,0.30459 25.046014,-4.56767 1.40675,2.35747 2.66882,4.79607 0,9.43982 -24.851064,25.13501 -33.568469,9.76161 -36.389022,-2.05543 -2.452076,-10.27324 4.046597,-27.84523 7.079859,-41.71791 -6.485875,-0.730741 -12.901921,-0.750741 -17.585459,1.29417 2.001251,-4.654107 4.596764,-7.525397 7.917257,-8.221767 l 11.495261,-0.30452 c 3.47037,-8.45395 4.05455,-19.318451 19.260285,-17.12869 z"
       id="path1462"
       sodipodi:nodetypes="ccccccccsccccc" />
    <path
       style="display:inline;fill:none;fill-opacity:1;stroke:#111331;stroke-width:1.50536;stroke-linecap:square;stroke-linejoin:bevel;stroke-miterlimit:4;stroke-dasharray:none;stroke-opacity:1;paint-order:markers stroke fill;stop-color:#000000"
       id="path2119-1"
       sodipodi:type="arc"
       sodipodi:cx="82.868073"
       sodipodi:cy="117.1943"
       sodipodi:rx="50.599953"
       sodipodi:ry="52.042858"
       sodipodi:start="0.21275564"
       sodipodi:end="0.20940111"
       sodipodi:open="true"
       sodipodi:arc-type="arc"
       d="M 132.32714,128.18337 A 50.599953,52.042858 0 0 1 72.225161,168.07293 50.599953,52.042858 0 0 1 33.391158,106.29057 50.599953,52.042858 0 0 1 93.427998,66.297376 50.599953,52.042858 0 0 1 132.3627,128.01266" />
  </g>
  <g
     inkscape:groupmode="layer"
     id="layer2"
     inkscape:label="Calque 2"
     style="display:none"
     transform="translate(23.913579,13.139963)">
    <path
       style="opacity:0.463869;fill:none;stroke:#f3822d;stroke-width:2.89068;stroke-linecap:square;stroke-linejoin:bevel;stroke-miterlimit:4;stroke-dasharray:none;stroke-opacity:1;paint-order:markers stroke fill;stop-color:#000000"
       id="path1433"
       sodipodi:type="arc"
       sodipodi:cx="37.788841"
       sodipodi:cy="39.561443"
       sodipodi:rx="42.440853"
       sodipodi:ry="42.440853"
       sodipodi:start="0.21275564"
       sodipodi:end="0.20940111"
       sodipodi:open="true"
       sodipodi:arc-type="arc"
       d="M 79.27277,48.523008 A 42.440853,42.440853 0 0 1 28.86207,81.052873 42.440853,42.440853 0 0 1 -3.7100604,30.669471 42.440853,42.440853 0 0 1 46.646008,-1.9449008 42.440853,42.440853 0 0 1 79.302599,48.383799" />
    <path
       style="opacity:0.463869;fill:none;stroke:#584c8f;stroke-width:3.06501;stroke-linecap:square;stroke-linejoin:bevel;stroke-miterlimit:4;stroke-dasharray:none;stroke-opacity:1;paint-order:markers stroke fill;stop-color:#000000"
       id="path1433-7"
       sodipodi:type="arc"
       sodipodi:cx="37.818665"
       sodipodi:cy="39.42223"
       sodipodi:rx="45"
       sodipodi:ry="45"
       sodipodi:start="0.21275564"
       sodipodi:end="0.20940111"
       sodipodi:open="true"
       sodipodi:arc-type="arc"
       d="M 81.804039,48.924169 A 45,45 0 0 1 28.353616,83.415557 45,45 0 0 1 -6.1825851,29.994079 45,45 0 0 1 47.209911,-4.5869112 45,45 0 0 1 81.835666,48.776566" />
  </g>
</svg>
